<?xml version="1.0" encoding="UTF-8"?>
<svg xmlns="http://www.w3.org/2000/svg" viewBox="0 0 100 120" fill="none" aria-label="California state outline">
  <path d="M 14.544 6.626 L 22.194 6.56 L 34.209 6.758 L 43.478 6.758 L 43.527 27.334 L 43.478 42.044 L 55.002 52.328 L 65.889 62.302 L 74.471 70.331 L 80.65 76.229 L 91.537 86.889 L 91.537 88.265 L 93.009 90.057 L 94.235 92.916 L 96 94.461 L 94.921 95.884 L 93.499 96.595 L 92.42 98.489 L 92.763 101.027 L 92.518 102.617 L 90.704 104.146 L 91.292 108.132 L 92.518 108.19 L 93.009 110.177 L 92.518 111.11 L 90.753 111.519 L 78.885 112.509 L 69.224 113.44 L 68.145 112.043 L 68.096 109.827 L 67.409 107.195 L 66.134 105.32 L 63.339 102.735 L 59.759 100.319 L 59.072 100.968 L 57.699 100.555 L 57.896 99.493 L 56.326 97.306 L 54.217 97.779 L 50.49 96.181 L 49.951 94.876 L 47.45 93.272 L 44.606 93.332 L 42.252 92.618 L 39.26 92.916 L 37.691 91.487 L 38.034 88.444 L 37.495 87.966 L 37.838 85.811 L 35.484 84.191 L 35.386 81.966 L 34.503 81.846 L 33.032 79.917 L 32.002 79.495 L 31.561 78.287 L 28.128 73.741 L 26.51 72.403 L 26.166 68.805 L 26.853 69.11 L 27.49 66.969 L 26.215 65.007 L 24.646 65.252 L 22.586 63.471 L 21.851 62.055 L 21.998 60.699 L 20.968 58.908 L 20.968 55.935 L 22.635 55.935 L 21.949 51.767 L 21.213 52.203 L 21.066 54.257 L 19.301 54.693 L 17.192 53.138 L 16.849 50.456 L 15.475 48.33 L 13.661 47.014 L 12.68 45.507 L 10.032 42.548 L 10.473 41.665 L 9.247 37.805 L 9.787 35.645 L 9.002 32.395 L 6.697 29.195 L 4.441 27.398 L 4 25.275 L 6.256 20.103 L 6.697 18.35 L 6.256 16.983 L 7.09 13.394 L 6.354 10.116 L 5.373 9.327 L 5.765 6.692 L 14.544 6.626 Z" fill="rgba(255,255,255,0.02)" stroke="rgba(255,255,255,0.42)" stroke-width="1.2" stroke-linejoin="round" stroke-linecap="round"/>
</svg>
