<?xml version="1.0" encoding="UTF-8"?>
<svg id="Layer_1" data-name="Layer 1" xmlns="http://www.w3.org/2000/svg" viewBox="0 0 1100 308.29">
  <defs>
    <style>
      .cls-1 {
        fill: #6d39b5;
      }
    </style>
  </defs>
  <g>
    <g>
      <path class="cls-1" d="M98.18,135.79h33.42c.96-.89,1.91-1.75,2.84-2.6,4.37-3.97,8.14-7.4,10.07-10.64.1-.24.27-.96.47-2.1l.21-1.11-9.67-23.51c-3.12-.15-6.2-.24-9.24-.27-4.05-.03-7.7-1.7-10.34-4.37h-36.11l18.34,44.6Z"/>
      <path class="cls-1" d="M125.22,142h-24.48l8.75,21.27c4.56-8.63,10.11-15.44,15.73-21.27Z"/>
      <polygon class="cls-1" points="19.34 91.19 37.68 135.79 91.46 135.79 73.11 91.19 19.34 91.19"/>
      <path class="cls-1" d="M213.86,288.22l-1.7-4.14c-3.14,1.61-6.47,2.99-9.96,4.14h11.66Z"/>
      <path class="cls-1" d="M148.2,108.41c1.33-2.98,3.1-5.58,5.28-7.74l-1.39-3.44c-2.94-.35-5.86-.64-8.75-.88l4.87,12.06Z"/>
      <path class="cls-1" d="M226.43,281.39c-1.95-.65-3.89-1.38-5.81-2.19l-2.8,1.68,5.8,14.37H95.14L9.68,85.17h102.68c-.42-1.38-.64-2.85-.63-4.38,0-1.18.17-2.32.44-3.41H3.89c-1.3,0-2.51.65-3.23,1.72-.72,1.08-.86,2.44-.38,3.64l88.63,217.87c.6,1.47,2.02,2.43,3.61,2.43h136.87c1.29,0,2.5-.64,3.23-1.72.72-1.07.87-2.44.38-3.64l-6.58-16.29Z"/>
      <path class="cls-1" d="M145.24,288.22c-8.01-2.62-15.12-6.45-21.26-11.5-9.99-8.21-17.02-19.31-21.09-33.11h-20.83l18.34,44.61h44.83Z"/>
      <path class="cls-1" d="M101.2,186.6c1.21-5.77,2.82-10.96,4.73-15.67l-11.91-28.93h-53.77l18.34,44.6h42.61Z"/>
      <path class="cls-1" d="M101.29,237.41c-1.69-7.73-2.54-16.22-2.54-25.45,0-6.99.48-13.34,1.35-19.16h-38.95l18.36,44.61h21.78Z"/>
    </g>
    <g>
      <path class="cls-1" d="M267.21,173.61l-1.56-.06c-4.64-.19-12.08.45-16.47,1.13l.77,3.24,1.59,6.12c.35,1.35-.48,2.74-1.83,3.1-.67.17-1.35.08-1.93-.26-.58-.34-.99-.9-1.17-1.58l-2.45-9.29-2.99,1.04c-12.63,4.38-22.22,12.32-28.5,23.59-4.03,7.23-5.67,14-4.88,20.12,1.69,12.9,13.11,19.69,19.25,23.33l.86.51c3.03,1.83,7.62,4.6,13.12,6.34,2.96.94,5.81,1.41,8.52,1.41,2.91,0,5.66-.54,8.24-1.62,5.43-2.36,10.24-7.21,14.29-14.43,2.94-5.23,4.93-10.8,5.91-16.58l.34-1.98-8.53-5.09c-.57-.33-.98-.87-1.14-1.52-.17-.67-.08-1.35.29-1.96.33-.57.87-.98,1.52-1.14.66-.17,1.35-.08,1.94.27l6.56,3.9-.39-5.58c-.99-14.24-7.03-25.96-10.54-31.68l-.82-1.33ZM241.05,213.33c-1.36.36-2.77-.44-3.14-1.74-.36-1.36.44-2.77,1.76-3.15l7.22-1.97.42-.13c1.21-.09,2.37.66,2.7,1.82.36,1.36-.44,2.77-1.79,3.15l-7.17,2.01ZM234.21,194.51l-2.63,4.72c-.33.6-.87,1.04-1.52,1.22-.65.18-1.32.1-1.93-.24-.6-.33-1.03-.87-1.22-1.52-.18-.64-.1-1.32.23-1.91l2.64-4.72c.33-.6.87-1.04,1.52-1.22.23-.06.45-.1.68-.1.43,0,.85.11,1.25.34.6.33,1.03.87,1.22,1.52.18.64.1,1.32-.23,1.92ZM236.76,234.05l2.63-4.72c.33-.6.87-1.03,1.52-1.22.22-.06.45-.1.68-.1.43,0,.85.11,1.25.34.6.33,1.03.87,1.22,1.52.18.64.1,1.32-.23,1.91l-2.64,4.72c-.33.6-.87,1.03-1.52,1.22-.64.18-1.32.1-1.93-.24-.6-.33-1.03-.87-1.22-1.52-.18-.65-.1-1.32.23-1.92ZM258.01,219.38c.21-.05.42-.08.63-.08,1.13,0,2.17.77,2.47,1.91l1.91,7.44c.17.67.08,1.35-.26,1.93-.34.58-.9.99-1.57,1.17-1.37.36-2.74-.45-3.1-1.83l-1.91-7.44c-.36-1.38.45-2.74,1.83-3.1ZM220.01,221.94l3.73-1.05,3.44-.91c1.35-.36,2.77.44,3.14,1.74.36,1.35-.44,2.77-1.78,3.15l-7.18,1.96c-1.36.36-2.77-.44-3.14-1.74-.36-1.36.44-2.77,1.78-3.15ZM260.73,199.94c-1.36.35-2.77-.45-3.13-1.74-.36-1.36.44-2.77,1.78-3.15l3.85-1.08,3.33-.88c1.36-.36,2.8.44,3.14,1.74.36,1.36-.44,2.77-1.76,3.15l-7.2,1.97Z"/>
      <path class="cls-1" d="M293.95,164.51c-1.06-1.24-1.05-2.23-.81-4.01.06-.39.13-.76.19-1.14-7.2-6.86-15.09-13.19-23.49-18.97-.49.32-.98.66-1.48,1.04-.58.46-1.16.96-1.76,1.48-.48.42-.98.85-1.54,1.31-1.28,1.07-1.95,1.41-3.2,1.12-8.21-1.72-19.05-.27-29.73,3.97-17.87,7.12-33.51,20.87-42.92,37.71-8.53,15.29-9.99,31.57-4.23,47.08,5.08,13.7,15.45,25.76,29.18,33.95l.2.11c10.9,6.5,22.87,9.88,34.31,9.88,4.79,0,9.49-.59,13.98-1.79,13.71-3.67,24.98-12.84,32.6-26.51,9.36-16.81,13.03-37.57,10.07-56.98-1.78-11.65-5.93-21.96-11.38-28.25ZM276.48,238.79c-4.64,8.28-10.29,13.87-16.79,16.61-12.43,5.26-25.63-1.15-34.47-6.43-9.56-5.75-20.76-14.08-22.55-27.56-.96-7.2.9-15.03,5.5-23.28,14.94-26.75,43.83-29.63,55.57-29.63,3.16,0,5.07.21,5.15.22.77.11,1.4.47,1.8,1.05.25.35,24.67,35.15,5.78,69.03Z"/>
      <path class="cls-1" d="M208.89,138.93l-1.22-1.11c-4.57-4.17-8.52-7.77-10.87-11.8-.67-1.14-.95-2.65-1.24-4.27l-.21-1.16c-.42-2.32-.86-4.71-1.61-6.96-1.15-3.53-2.88-6.29-5.25-8.41v-1.1c-9.38-2.43-18.75-4.35-27.98-5.75v5.54c-.06.04-.13.09-.19.14-3.07,2.26-5.22,5.37-6.58,9.51-.75,2.26-1.19,4.66-1.62,6.98l-.22,1.16c-.28,1.52-.6,3.1-1.25,4.27-2.45,4.21-6.64,8.01-11.48,12.42-2.27,2.06-4.62,4.2-7.01,6.57-13.05,13.05-26.38,31.21-26.38,66.99,0,27.01,7.63,46.97,22.67,59.33,11.37,9.35,26.6,14.09,45.28,14.09,15.16,0,28.11-3.15,38.49-9.35l3.4-2.04-3.43-2c-6.24-3.65-11.85-7.66-16.68-11.92-6.57-5.86-11.61-12.29-14.98-19.13l-1.96-3.98-2.19,3.86c-.55.97-1.62,1.6-2.72,1.6-1.72,0-3.12-1.4-3.12-3.12v-71.08c0-1.72,1.4-3.12,3.12-3.12s3.12,1.4,3.12,3.12v34.25l4.54-12.16c3.08-8.24,7.32-15.59,12.61-21.83l1.29-1.53-1.31-1.52c-3.19-3.7-5.61-5.56-5.73-5.65-1.38-1.03-1.66-2.99-.62-4.37,1.03-1.38,2.99-1.66,4.37-.62h.02s2.71,2.03,6.18,6.01l1.52,1.75,1.76-1.5c4.53-3.85,9.73-7.17,15.45-9.89l2.92-1.39-2.22-2.35c-3.01-3.17-5.96-5.95-8.7-8.48ZM157.95,252.63l.14.04c.79.19,1.46.68,1.89,1.38.44.72.57,1.57.37,2.39h0c-.19.8-.68,1.47-1.38,1.9-.72.44-1.58.57-2.45.36-.99-.22-24.18-5.93-24.18-52.22,0-34.07,22.88-51.52,23.12-51.7.56-.42,1.22-.62,1.87-.62.95,0,1.89.43,2.5,1.25,1.03,1.38.75,3.34-.64,4.38-.84.64-20.61,16.04-20.61,46.7,0,39.71,18.58,45.9,19.37,46.14Z"/>
    </g>
    <g>
      <path class="cls-1" d="M337.17,142.21l-18.13-9.89c-.59-.32-1.24-.48-1.89-.48-.37,0-.75.05-1.12.16-1.01.3-1.85.97-2.35,1.9-1.04,1.91-.34,4.32,1.58,5.36l18.13,9.89c.93.51,1.99.62,3.01.32,1.01-.3,1.85-.97,2.35-1.9.51-.93.62-2,.32-3.01s-.97-1.85-1.9-2.35Z"/>
      <path class="cls-1" d="M285.03,36.53c1.91,1.04,4.32.33,5.36-1.58l9.89-18.13c1.04-1.91.34-4.32-1.58-5.36s-4.32-.34-5.36,1.58l-9.89,18.13c-1.04,1.91-.34,4.32,1.58,5.36Z"/>
      <path class="cls-1" d="M311.89,62.09c.52.9,1.37,1.55,2.39,1.82,1.03.27,2.09.13,3-.4l17.22-10.01c.91-.53,1.56-1.37,1.83-2.39.27-1.02.13-2.09-.4-3.01-.53-.91-1.37-1.56-2.39-1.83-.34-.09-.68-.13-1.02-.13-.69,0-1.37.18-1.98.54l-17.21,10c-1.88,1.1-2.52,3.52-1.43,5.41h0Z"/>
      <path class="cls-1" d="M198.85,71.28c-.82,1.5-1.55,3.05-2.23,4.61,2.56.67,5.13,1.37,7.7,2.11.46-.99.95-1.97,1.48-2.94,13.49-24.75,44.6-33.9,69.35-20.4,24.42,13.32,33.64,43.78,20.91,68.36,2.13,1.63,4.23,3.31,6.29,5.01.04-.08.1-.16.14-.24,15.58-28.57,5.01-64.49-23.56-80.07-28.57-15.58-64.49-5.01-80.07,23.56Z"/>
      <path class="cls-1" d="M348.91,93.86c-.73-.67-1.66-1.03-2.63-1.03-.06,0-.13,0-.19,0l-19.91.91c-1.05.05-2.03.51-2.74,1.29-.71.78-1.07,1.78-1.02,2.83.05,1.06.5,2.04,1.28,2.75s1.8,1.08,2.84,1.03l19.88-.92c1.06-.05,2.03-.51,2.75-1.29.71-.78,1.07-1.78,1.02-2.82-.05-1.06-.51-2.04-1.29-2.75Z"/>
      <path class="cls-1" d="M164.17,56.87l18.13,9.89c1.91,1.04,4.32.34,5.36-1.58.23-.43.38-.88.44-1.34.22-1.68-.58-3.24-2.02-4.03l-18.13-9.89c-.6-.33-1.25-.48-1.89-.48-1.26,0-2.48.6-3.24,1.7-.08.11-.15.23-.23.36-.51.93-.62,1.99-.32,3.01.3,1.01.97,1.85,1.9,2.35Z"/>
      <path class="cls-1" d="M246.17,26.77c.78.71,1.78,1.07,2.83,1.02,2.19-.1,3.88-1.95,3.78-4.13l-.92-19.88c-.05-1.06-.51-2.03-1.29-2.75-.78-.71-1.79-1.08-2.82-1.02-1.06.05-2.04.51-2.75,1.29-.71.78-1.07,1.78-1.02,2.82l.91,19.9c.05,1.06.51,2.03,1.29,2.74Z"/>
      <path class="cls-1" d="M197.81,19.68l10,17.21c.53.91,1.38,1.56,2.4,1.83,1.02.27,2.09.13,3-.41.91-.53,1.56-1.38,1.83-2.4.27-1.02.13-2.09-.4-3l-10.01-17.22c-.53-.91-1.37-1.56-2.39-1.83-.34-.09-.68-.13-1.03-.13-.69,0-1.37.18-1.98.54-.91.53-1.56,1.37-1.83,2.39-.27,1.02-.13,2.09.4,3.01h0Z"/>
    </g>
    <path class="cls-1" d="M329.88,186.74c-1.96,0-3.87-.98-4.98-2.76-39.34-63.14-129.66-96.69-198.55-97.2-3.24-.02-5.84-2.67-5.82-5.91.02-3.22,2.64-5.82,5.86-5.82h.04c37.65.28,78.42,9.45,114.79,25.81,41.54,18.69,73.92,45.29,93.63,76.92,1.71,2.75.87,6.36-1.88,8.08-.96.6-2.04.89-3.09.89Z"/>
  </g>
  <g>
    <path class="cls-1" d="M413.08,248.15c-7.51-3.4-13.45-8.03-17.82-13.86-4.38-5.84-6.78-12.3-7.19-19.39h29.39c.55,4.45,2.74,8.13,6.57,11.05,3.82,2.92,8.58,4.38,14.28,4.38s9.9-1.11,13.03-3.33c3.13-2.22,4.69-5.07,4.69-8.55,0-3.75-1.91-6.57-5.73-8.44-3.82-1.88-9.9-3.93-18.24-6.15-8.62-2.09-15.67-4.24-21.16-6.46-5.49-2.22-10.21-5.63-14.18-10.22s-5.94-10.77-5.94-18.55c0-6.39,1.84-12.23,5.52-17.51,3.68-5.28,8.96-9.45,15.84-12.51,6.88-3.06,14.97-4.59,24.29-4.59,13.76,0,24.74,3.44,32.94,10.32,8.2,6.88,12.72,16.16,13.55,27.83h-27.93c-.42-4.59-2.33-8.23-5.73-10.94-3.41-2.71-7.96-4.06-13.65-4.06-5.28,0-9.35.97-12.2,2.92-2.85,1.95-4.27,4.66-4.27,8.13,0,3.89,1.94,6.85,5.84,8.86,3.89,2.02,9.93,4.07,18.14,6.15,8.34,2.09,15.22,4.24,20.64,6.46,5.42,2.23,10.11,5.67,14.07,10.32,3.96,4.66,6.01,10.81,6.15,18.45,0,6.67-1.84,12.65-5.52,17.93-3.68,5.28-8.96,9.42-15.84,12.4-6.88,2.99-14.9,4.48-24.08,4.48s-17.93-1.7-25.43-5.11Z"/>
    <path class="cls-1" d="M518.78,245.85c-8.9-4.93-15.88-11.91-20.95-20.95-5.08-9.03-7.61-19.46-7.61-31.27s2.61-22.23,7.82-31.27c5.21-9.03,12.33-16.02,21.37-20.95,9.03-4.93,19.11-7.4,30.23-7.4s21.19,2.47,30.23,7.4c9.03,4.93,16.16,11.92,21.37,20.95,5.21,9.04,7.82,19.46,7.82,31.27s-2.68,22.24-8.03,31.27c-5.35,9.04-12.58,16.02-21.68,20.95-9.1,4.93-19.28,7.4-30.54,7.4s-21.13-2.47-30.02-7.4ZM563.7,223.96c4.65-2.57,8.37-6.43,11.15-11.57,2.78-5.14,4.17-11.39,4.17-18.76,0-10.98-2.89-19.42-8.65-25.33-5.77-5.91-12.82-8.86-21.16-8.86s-15.32,2.95-20.95,8.86c-5.63,5.91-8.44,14.35-8.44,25.33s2.74,19.42,8.24,25.33c5.49,5.91,12.4,8.86,20.74,8.86,5.28,0,10.25-1.28,14.91-3.86Z"/>
    <path class="cls-1" d="M649.27,97.11v154.27h-29.19V97.11h29.19Z"/>
    <path class="cls-1" d="M667.1,162.15c4.66-9.03,10.98-15.98,18.97-20.85,7.99-4.86,16.92-7.3,26.79-7.3,8.62,0,16.16,1.74,22.62,5.21,6.46,3.47,11.64,7.85,15.53,13.13v-16.47h29.39v115.49h-29.39v-16.89c-3.75,5.42-8.93,9.9-15.53,13.45-6.6,3.54-14.21,5.32-22.83,5.32-9.73,0-18.59-2.5-26.58-7.5-7.99-5-14.32-12.06-18.97-21.16-4.66-9.1-6.98-19.56-6.98-31.37s2.33-22.03,6.98-31.06ZM746.84,175.39c-2.78-5.07-6.53-8.96-11.26-11.67-4.73-2.71-9.8-4.07-15.22-4.07s-10.42,1.32-15.01,3.96c-4.59,2.64-8.31,6.5-11.15,11.57-2.85,5.07-4.27,11.08-4.27,18.03s1.42,13.03,4.27,18.24c2.85,5.21,6.6,9.21,11.26,11.99,4.66,2.78,9.62,4.17,14.91,4.17s10.49-1.35,15.22-4.07c4.72-2.71,8.48-6.6,11.26-11.67,2.78-5.07,4.17-11.15,4.17-18.24s-1.39-13.17-4.17-18.24Z"/>
    <path class="cls-1" d="M836.55,139.43c6.05-3.47,12.96-5.21,20.74-5.21v30.64h-7.71c-9.17,0-16.09,2.16-20.74,6.46-4.66,4.31-6.98,11.81-6.98,22.51v57.54h-29.19v-115.49h29.19v17.93c3.75-6.11,8.65-10.91,14.7-14.38Z"/>
    <path class="cls-1" d="M931.14,159.86h-20.22v91.52h-29.6v-91.52h-13.13v-23.97h13.13v-5.84c0-14.18,4.03-24.6,12.09-31.27,8.06-6.67,20.22-9.8,36.48-9.38v24.6c-7.09-.14-12.02,1.04-14.8,3.54-2.78,2.5-4.17,7.02-4.17,13.55v4.79h20.22v23.97Z"/>
    <path class="cls-1" d="M970.05,135.89v115.49h-29.19v-115.49h29.19Z"/>
    <path class="cls-1" d="M1055.18,139.12c6.53,3.41,11.67,7.82,15.43,13.24v-16.47h29.39v116.32c0,10.7-2.16,20.25-6.46,28.66-4.31,8.41-10.77,15.08-19.39,20.01-8.62,4.93-19.04,7.4-31.27,7.4-16.4,0-29.85-3.82-40.34-11.47-10.49-7.65-16.44-18.07-17.82-31.27h28.98c1.53,5.28,4.83,9.49,9.9,12.61,5.07,3.13,11.22,4.69,18.45,4.69,8.48,0,15.35-2.54,20.64-7.61,5.28-5.07,7.92-12.75,7.92-23.04v-17.93c-3.75,5.42-8.93,9.94-15.53,13.55-6.6,3.61-14.14,5.42-22.62,5.42-9.73,0-18.62-2.5-26.68-7.5-8.06-5-14.42-12.06-19.08-21.16-4.66-9.1-6.98-19.56-6.98-31.37s2.33-22.03,6.98-31.06c4.66-9.03,10.98-15.98,18.97-20.85,7.99-4.86,16.92-7.3,26.79-7.3,8.62,0,16.19,1.7,22.72,5.11ZM1066.44,175.39c-2.78-5.07-6.53-8.96-11.26-11.67-4.73-2.71-9.8-4.07-15.22-4.07s-10.42,1.32-15.01,3.96c-4.59,2.64-8.31,6.5-11.15,11.57-2.85,5.07-4.27,11.08-4.27,18.03s1.42,13.03,4.27,18.24c2.85,5.21,6.6,9.21,11.26,11.99,4.66,2.78,9.62,4.17,14.91,4.17s10.49-1.35,15.22-4.07c4.72-2.71,8.48-6.6,11.26-11.67,2.78-5.07,4.17-11.15,4.17-18.24s-1.39-13.17-4.17-18.24Z"/>
  </g>
</svg>