<?xml version="1.0" encoding="UTF-8"?>
<svg id="Layer_1" data-name="Layer 1" xmlns="http://www.w3.org/2000/svg" viewBox="0 0 500.14 432.78">
  <defs>
    <style>
      .cls-1 {
        fill: #fff;
      }
    </style>
  </defs>
  <g>
    <path class="cls-1" d="M140.22,193.92h47.73c1.37-1.27,2.73-2.5,4.06-3.72,6.24-5.67,11.63-10.57,14.38-15.19.14-.34.38-1.37.67-2.99l.29-1.59-13.81-33.57c-4.45-.22-8.85-.35-13.19-.38-5.78-.04-11-2.43-14.76-6.25h-51.57l26.2,63.69Z"/>
    <path class="cls-1" d="M178.83,202.8h-34.96l12.5,30.38c6.51-12.32,14.44-22.05,22.46-30.38Z"/>
    <polygon class="cls-1" points="27.62 130.23 53.81 193.92 130.61 193.92 104.42 130.23 27.62 130.23"/>
    <path class="cls-1" d="M305.43,411.62l-2.43-5.91c-4.49,2.3-9.23,4.27-14.23,5.91h16.66Z"/>
    <path class="cls-1" d="M211.65,154.83c1.9-4.26,4.42-7.96,7.53-11.05l-1.99-4.92c-4.2-.5-8.37-.91-12.5-1.25l6.95,17.23Z"/>
    <path class="cls-1" d="M323.37,401.87c-2.79-.92-5.56-1.97-8.3-3.13l-4,2.39,8.29,20.53h-183.49L13.83,121.64h146.65c-.6-1.98-.92-4.07-.9-6.25.01-1.68.25-3.31.63-4.88H5.56c-1.85,0-3.58.92-4.61,2.46-1.03,1.54-1.23,3.49-.54,5.2l126.57,311.15c.85,2.1,2.89,3.47,5.15,3.47h195.47c1.85,0,3.58-.92,4.61-2.45,1.03-1.53,1.24-3.48.55-5.19l-9.39-23.27Z"/>
    <path class="cls-1" d="M207.43,411.62c-11.44-3.74-21.59-9.21-30.36-16.43-14.27-11.73-24.31-27.57-30.11-47.29h-29.74l26.19,63.71h64.03Z"/>
    <path class="cls-1" d="M144.52,266.49c1.73-8.24,4.03-15.65,6.76-22.37l-17.01-41.32H57.47l26.2,63.69h60.86Z"/>
    <path class="cls-1" d="M144.66,339.05c-2.41-11.04-3.63-23.16-3.63-36.35,0-9.98.69-19.05,1.92-27.36h-55.63l26.22,63.71h31.11Z"/>
  </g>
  <g>
    <path class="cls-1" d="M381.62,247.93l-2.23-.09c-6.63-.27-17.25.64-23.52,1.62l1.1,4.63,2.27,8.75c.5,1.92-.68,3.91-2.62,4.42-.95.25-1.93.12-2.75-.37-.83-.49-1.42-1.29-1.67-2.26l-3.49-13.27-4.27,1.48c-18.03,6.25-31.73,17.59-40.7,33.7-5.76,10.33-8.1,19.99-6.97,28.74,2.42,18.42,18.73,28.11,27.49,33.33l1.23.73c4.33,2.62,10.88,6.57,18.74,9.05,4.23,1.34,8.29,2.01,12.16,2.01,4.15,0,8.08-.77,11.77-2.32,7.75-3.36,14.62-10.3,20.41-20.61,4.2-7.46,7.04-15.43,8.44-23.68l.48-2.83-12.18-7.27c-.82-.48-1.4-1.25-1.63-2.17-.25-.95-.11-1.93.41-2.8.48-.81,1.25-1.4,2.17-1.63.95-.25,1.93-.11,2.76.39l9.37,5.57-.55-7.97c-1.41-20.33-10.04-37.07-15.05-45.24l-1.17-1.9ZM344.26,304.67c-1.94.51-3.96-.63-4.49-2.49-.51-1.94.64-3.96,2.52-4.49l10.31-2.81.6-.18c1.73-.13,3.38.95,3.85,2.6.51,1.94-.63,3.96-2.55,4.5l-10.24,2.87ZM334.49,277.78l-3.76,6.74c-.47.86-1.24,1.48-2.17,1.74-.93.26-1.89.15-2.76-.34-.86-.47-1.48-1.24-1.74-2.17-.26-.92-.15-1.89.32-2.73l3.77-6.75c.47-.86,1.24-1.48,2.17-1.74.32-.09.65-.14.97-.14.61,0,1.22.16,1.79.48.86.47,1.48,1.24,1.74,2.17.26.92.15,1.89-.33,2.74ZM338.13,334.26l3.76-6.74c.47-.86,1.24-1.48,2.17-1.74.32-.09.65-.14.97-.14.61,0,1.22.16,1.79.48.86.47,1.48,1.24,1.74,2.17.26.92.15,1.89-.32,2.73l-3.77,6.75c-.47.86-1.24,1.48-2.17,1.74-.92.26-1.89.15-2.76-.34-.86-.47-1.48-1.24-1.74-2.17-.26-.92-.15-1.89.33-2.74ZM368.48,313.31c.3-.08.6-.11.89-.11,1.61,0,3.1,1.1,3.53,2.73l2.73,10.63c.25.95.11,1.93-.37,2.75-.49.83-1.29,1.42-2.25,1.67-1.96.51-3.91-.64-4.42-2.61l-2.73-10.63c-.51-1.97.64-3.91,2.62-4.42ZM314.21,316.96l5.33-1.49,4.92-1.3c1.93-.51,3.96.63,4.49,2.49.51,1.93-.63,3.95-2.54,4.5l-10.25,2.8c-1.94.52-3.96-.63-4.49-2.49-.51-1.94.63-3.96,2.55-4.5ZM372.36,285.54c-1.94.5-3.95-.64-4.47-2.49-.51-1.94.63-3.96,2.55-4.5l5.49-1.54,4.75-1.26c1.94-.51,4,.63,4.49,2.49.51,1.94-.63,3.96-2.52,4.49l-10.29,2.81Z"/>
    <path class="cls-1" d="M419.8,234.94c-1.51-1.77-1.5-3.18-1.15-5.73.08-.55.18-1.09.27-1.63-10.29-9.8-21.55-18.84-33.55-27.1-.7.45-1.41.94-2.11,1.48-.83.65-1.66,1.37-2.51,2.12-.69.6-1.4,1.22-2.2,1.87-1.83,1.53-2.78,2.01-4.57,1.61-11.72-2.45-27.2-.38-42.46,5.68-25.52,10.17-47.86,29.8-61.29,53.85-12.18,21.83-14.27,45.08-6.05,67.24,7.26,19.57,22.06,36.79,41.68,48.49l.29.16c15.57,9.28,32.65,14.11,49.01,14.11,6.84,0,13.55-.85,19.97-2.56,19.58-5.24,35.68-18.33,46.56-37.86,13.37-24,18.62-53.66,14.38-81.38-2.54-16.64-8.47-31.36-16.26-40.34ZM394.85,341.02c-6.63,11.82-14.7,19.8-23.98,23.72-17.76,7.52-36.61-1.64-49.23-9.18-13.65-8.21-29.65-20.11-32.21-39.36-1.36-10.28,1.28-21.47,7.86-33.25,21.33-38.21,62.6-42.32,79.36-42.32,4.51,0,7.24.3,7.35.31,1.1.16,2,.67,2.58,1.5.36.5,35.23,50.2,8.26,98.58Z"/>
    <path class="cls-1" d="M298.32,198.41l-1.74-1.59c-6.53-5.95-12.17-11.1-15.52-16.86-.96-1.62-1.36-3.79-1.78-6.09l-.31-1.66c-.61-3.31-1.23-6.73-2.3-9.93-1.65-5.04-4.11-8.98-7.49-12.01v-1.57c-13.39-3.47-26.78-6.21-39.96-8.21v7.92c-.09.06-.18.13-.28.19-4.38,3.22-7.45,7.67-9.39,13.59-1.07,3.22-1.7,6.65-2.31,9.96l-.31,1.66c-.39,2.17-.86,4.43-1.78,6.09-3.5,6.01-9.48,11.44-16.4,17.73-3.24,2.95-6.59,5.99-10.01,9.39-18.63,18.63-37.68,44.57-37.68,95.67,0,38.57,10.89,67.08,32.38,84.73,16.24,13.35,38,20.12,64.67,20.12,21.66,0,40.15-4.49,54.97-13.36l4.86-2.91-4.89-2.86c-8.91-5.21-16.93-10.93-23.82-17.02-9.39-8.36-16.59-17.56-21.4-27.32l-2.8-5.68-3.12,5.51c-.79,1.39-2.31,2.28-3.88,2.28-2.46,0-4.46-2-4.46-4.46v-101.51c0-2.46,2-4.46,4.46-4.46s4.46,2,4.46,4.46v48.91l6.49-17.37c4.4-11.77,10.45-22.26,18-31.18l1.85-2.18-1.87-2.17c-4.55-5.28-8.01-7.94-8.18-8.06-1.97-1.48-2.37-4.28-.89-6.24,1.47-1.97,4.28-2.37,6.24-.89l.03.02s3.87,2.87,8.83,8.56l2.17,2.49,2.52-2.14c6.46-5.49,13.89-10.25,22.07-14.13l4.17-1.98-3.17-3.35c-4.29-4.53-8.51-8.5-12.43-12.11ZM225.58,360.79l.2.06c1.13.27,2.09.97,2.7,1.98.63,1.04.82,2.25.53,3.42h0c-.27,1.14-.97,2.1-1.98,2.71-1.04.63-2.25.82-3.51.51-1.41-.31-34.53-8.47-34.53-74.57,0-48.66,32.67-73.58,33.02-73.84.8-.6,1.74-.89,2.67-.89,1.36,0,2.7.62,3.57,1.78,1.47,1.97,1.07,4.77-.91,6.26-1.2.92-29.43,22.9-29.43,66.69,0,56.71,26.53,65.55,27.66,65.9Z"/>
  </g>
  <g>
    <path class="cls-1" d="M481.52,203.09l-25.89-14.12c-.84-.46-1.76-.69-2.7-.69-.53,0-1.07.08-1.6.23-1.45.43-2.64,1.39-3.36,2.71-1.49,2.73-.48,6.17,2.25,7.66l25.89,14.12c1.32.72,2.85.89,4.3.46,1.45-.43,2.64-1.39,3.36-2.71.72-1.32.89-2.85.46-4.3s-1.39-2.64-2.71-3.36Z"/>
    <path class="cls-1" d="M407.06,52.17c2.73,1.49,6.17.48,7.66-2.25l14.12-25.89c1.49-2.73.48-6.17-2.25-7.66s-6.17-.48-7.66,2.25l-14.12,25.89c-1.49,2.73-.48,6.17,2.25,7.66Z"/>
    <path class="cls-1" d="M445.43,88.67c.75,1.29,1.96,2.22,3.41,2.6,1.46.39,2.99.19,4.29-.57l24.59-14.3c1.3-.75,2.22-1.96,2.61-3.41.39-1.46.18-2.99-.58-4.3-.75-1.3-1.96-2.22-3.41-2.61-.48-.13-.98-.19-1.46-.19-.99,0-1.96.26-2.83.77l-24.58,14.28c-2.69,1.56-3.6,5.03-2.04,7.72h0Z"/>
    <path class="cls-1" d="M283.98,101.8c-1.17,2.14-2.21,4.35-3.19,6.59,3.66.95,7.33,1.96,10.99,3.01.66-1.41,1.36-2.81,2.11-4.19,19.27-35.34,63.7-48.41,99.04-29.14,34.87,19.02,48.04,62.53,29.86,97.63,3.04,2.33,6.04,4.72,8.99,7.16.06-.12.14-.23.2-.34,22.25-40.81,7.16-92.1-33.65-114.36-40.8-22.25-92.1-7.16-114.36,33.65Z"/>
    <path class="cls-1" d="M498.29,134.05c-1.04-.95-2.37-1.47-3.76-1.47-.09,0-.18,0-.27,0l-28.43,1.3c-1.5.07-2.89.73-3.91,1.84-1.01,1.11-1.53,2.55-1.46,4.04.07,1.52.72,2.91,1.83,3.93,1.11,1.02,2.57,1.54,4.06,1.47l28.4-1.31c1.51-.07,2.9-.72,3.92-1.84,1.01-1.11,1.53-2.54,1.46-4.03-.07-1.52-.72-2.91-1.84-3.93Z"/>
    <path class="cls-1" d="M234.46,81.22l25.89,14.12c2.73,1.49,6.17.48,7.66-2.25.34-.61.55-1.26.63-1.91.31-2.39-.83-4.62-2.89-5.75l-25.89-14.12c-.86-.47-1.79-.69-2.7-.69-1.79,0-3.54.86-4.63,2.43-.11.16-.22.33-.32.52-.72,1.32-.89,2.85-.46,4.29.43,1.45,1.39,2.64,2.71,3.36Z"/>
    <path class="cls-1" d="M351.56,38.23c1.11,1.01,2.55,1.53,4.03,1.46,3.12-.14,5.54-2.79,5.4-5.9l-1.31-28.4c-.07-1.51-.72-2.9-1.84-3.92-1.11-1.01-2.56-1.54-4.03-1.46-1.52.07-2.91.72-3.93,1.84-1.01,1.11-1.53,2.54-1.46,4.03l1.3,28.43c.07,1.51.73,2.9,1.85,3.92Z"/>
    <path class="cls-1" d="M282.49,28.1l14.28,24.58c.76,1.3,1.98,2.23,3.43,2.62,1.46.39,2.98.18,4.29-.58,1.3-.75,2.23-1.97,2.61-3.42.39-1.46.18-2.98-.57-4.28l-14.3-24.59c-.75-1.3-1.96-2.22-3.41-2.61-.48-.13-.98-.19-1.46-.19-.99,0-1.96.26-2.83.77-1.3.75-2.22,1.96-2.61,3.41-.39,1.46-.18,2.99.58,4.3h0Z"/>
  </g>
  <path class="cls-1" d="M471.12,266.69c-2.8,0-5.53-1.4-7.12-3.95-56.18-90.17-185.17-138.09-283.56-138.82-4.63-.03-8.35-3.81-8.31-8.44.03-4.6,3.78-8.31,8.37-8.31h.06c53.77.4,111.99,13.49,163.93,36.86,59.33,26.69,105.57,64.67,133.72,109.86,2.45,3.93,1.25,9.09-2.68,11.54-1.38.86-2.91,1.27-4.42,1.27Z"/>
</svg>