<svg xmlns="http://www.w3.org/2000/svg" viewBox="0 0 74 25" fill="currentColor">
<path d="M7.42855 12.8861H4.29656C4.16756 12.8861 4.05956 12.9911 4.05956 13.1231V18.9551C4.05956 19.1291 3.91855 19.2701 3.74455 19.2701H0.708556C0.534556 19.2701 0.393555 19.1291 0.393555 18.9551V0.997058C0.393555 0.826058 0.534556 0.685059 0.708556 0.685059H7.42855C10.9776 0.685059 13.8666 2.95906 13.8666 6.77206C13.8666 10.5851 10.9806 12.8861 7.42855 12.8861ZM4.05956 9.37606C4.05956 9.50506 4.16456 9.61306 4.29656 9.61306H7.28456C9.18656 9.61306 10.1976 8.41306 10.1976 6.77206C10.1976 5.13106 9.18656 3.95806 7.28456 3.95806H4.29656C4.16756 3.95806 4.05956 4.06306 4.05956 4.19506V9.37606Z" fill="black" />
<path d="M18.5525 6.28928V6.98228C18.5525 7.09928 18.6935 7.15028 18.7715 7.06628C19.4465 6.33128 20.7035 5.86328 22.0505 5.86328H22.8875C23.0615 5.86328 23.2025 6.00428 23.2025 6.17828V8.90828C23.2025 9.08228 23.0615 9.22328 22.8875 9.22328H22.0205C19.7525 9.22328 18.5495 10.6783 18.5495 12.8053V18.9553C18.5495 19.1293 18.4085 19.2703 18.2345 19.2703H15.3365C15.1625 19.2703 15.0215 19.1293 15.0215 18.9553V6.28928C15.0215 6.11528 15.1625 5.97428 15.3365 5.97428H18.2345C18.4085 5.97428 18.5495 6.11528 18.5495 6.28928H18.5525Z" fill="black" />
<path d="M37.8243 12.6339C37.8243 16.6359 34.7193 19.6299 30.6033 19.6299C26.4873 19.6299 23.3853 16.6359 23.3853 12.6339C23.3853 8.63191 26.4903 5.60791 30.6033 5.60791C34.7163 5.60791 37.8243 8.60191 37.8243 12.6339ZM26.9103 12.6339C26.9103 14.8449 28.5033 16.3839 30.6033 16.3839C32.7033 16.3839 34.2963 14.8449 34.2963 12.6339C34.2963 10.4229 32.7003 8.85691 30.6033 8.85691C28.5063 8.85691 26.9103 10.3959 26.9103 12.6339Z" fill="black" />
<path d="M46.6417 19.6303C45.2947 19.6303 43.9207 19.2133 43.0087 18.4663C42.9067 18.3823 42.7507 18.4513 42.7507 18.5863V24.6643C42.7507 24.8383 42.6097 24.9793 42.4357 24.9793H39.5377C39.3637 24.9793 39.2227 24.8383 39.2227 24.6643V6.28926C39.2227 6.11526 39.3637 5.97426 39.5377 5.97426H42.4357C42.6097 5.97426 42.7507 6.11526 42.7507 6.28926V6.70026C42.7507 6.80826 42.8737 6.86526 42.9577 6.79626C43.8667 6.02226 45.2677 5.61426 46.6417 5.61426C50.9227 5.61426 53.4427 8.97126 53.4427 12.6103C53.4427 16.2493 50.9227 19.6363 46.6417 19.6363V19.6303ZM46.3627 8.85726C44.4877 8.85726 42.6127 10.0903 42.6127 12.6073C42.6127 15.1243 44.4877 16.3843 46.3627 16.3843C48.4627 16.3843 49.9177 14.6503 49.9177 12.6073C49.9177 10.5643 48.4627 8.85726 46.3627 8.85726Z" fill="black" />
<path d="M67.7919 15.2383C68.0199 15.2383 68.1729 15.4753 68.0799 15.6823C66.9549 18.1123 64.4109 19.6333 61.7169 19.6333C57.5739 19.6333 54.5259 16.6393 54.5259 12.6103C54.5259 8.58126 57.4629 5.61426 61.5789 5.61426C65.6949 5.61426 68.4909 8.63826 68.4909 12.5533C68.4909 12.9013 68.4909 13.1803 68.4639 13.4983C68.4489 13.6603 68.3139 13.7863 68.1519 13.7863H58.5009C58.3419 13.7863 58.2249 13.9423 58.2759 14.0923C58.7439 15.5113 60.0969 16.3903 61.7169 16.3903C62.7819 16.3903 63.7449 16.0873 64.3659 15.3583C64.4289 15.2863 64.5159 15.2413 64.6089 15.2413H67.7919V15.2383ZM64.4499 11.1523C64.5999 11.1523 64.7169 11.0113 64.6809 10.8643C64.3449 9.49326 63.0939 8.63226 61.5759 8.63226C60.0579 8.63226 58.6929 9.51126 58.3329 10.8613C58.2939 11.0083 58.4109 11.1523 58.5639 11.1523H64.4529H64.4499Z" fill="black" />
<path d="M73.6115 1.00006V18.9551C73.6115 19.1291 73.4705 19.2701 73.2965 19.2701H70.3985C70.2245 19.2701 70.0835 19.1291 70.0835 18.9551V1.00006C70.0835 0.826058 70.2245 0.685059 70.3985 0.685059H73.2965C73.4705 0.685059 73.6115 0.826058 73.6115 1.00006Z" fill="black" />
</svg>
