<?xml version="1.0" encoding="utf-8"?>
<!-- Generator: Adobe Illustrator 26.0.0, SVG Export Plug-In . SVG Version: 6.00 Build 0)  -->
<svg version="1.1" id="Layer_1" xmlns="http://www.w3.org/2000/svg" xmlns:xlink="http://www.w3.org/1999/xlink" x="0px" y="0px"
	 viewBox="0 0 139 97" style="enable-background:new 0 0 139 97;" xml:space="preserve">
<style type="text/css">
	.st0{fill:url(#SVGID_1_);}
	.st1{fill:#FFFFFF;}
</style>
<linearGradient id="SVGID_1_" gradientUnits="userSpaceOnUse" x1="16.8011" y1="112.1357" x2="122.1989" y2="-13.1357" gradientTransform="matrix(1 0 0 -1 0 98)">
	<stop  offset="0.1582" style="stop-color:#00BAE3"/>
	<stop  offset="0.2182" style="stop-color:#14BAC3"/>
	<stop  offset="0.3094" style="stop-color:#2EBB97"/>
	<stop  offset="0.4053" style="stop-color:#45BB72"/>
	<stop  offset="0.5048" style="stop-color:#57BC54"/>
	<stop  offset="0.609" style="stop-color:#65BC3D"/>
	<stop  offset="0.7201" style="stop-color:#6FBC2C"/>
	<stop  offset="0.8429" style="stop-color:#75BC22"/>
	<stop  offset="1" style="stop-color:#77BC1F"/>
</linearGradient>
<path class="st0" d="M139,97H0V0h139V97z"/>
<path class="st1" d="M54.4,51c-1.3,4.2-4.7,6.7-8.9,6.7c-2.7,0-4.8-0.9-6.6-2.8c-1.7-1.8-2.6-4.1-2.6-6.5c0-2.4,0.9-4.6,2.7-6.4
	c1.8-1.8,3.9-2.7,6.4-2.7c4.4,0,7.6,2.4,9,6.8h-5.4c-0.7-1.2-1.9-1.9-3.6-1.9c-2.3,0-4,1.8-4,4.2c0,2.7,1.7,4.3,4.1,4.3
	c1.4,0,2.5-0.6,3.4-1.7H54.4z M60.6,39.8v2.4c0.8-1.8,2.3-2.6,4.4-2.6v4.7c0,0-0.1,0-0.1,0c-3.2,0-3.9,1.1-3.9,4.3v8.6h-5.2V39.8
	L60.6,39.8L60.6,39.8z M83,52.2c-1.7,3.6-4.6,5.5-8.5,5.5c-2.7,0-4.8-0.9-6.6-2.8c-1.7-1.8-2.6-4-2.6-6.5c0-2.4,0.9-4.7,2.7-6.4
	c1.8-1.8,4.1-2.7,6.4-2.7c5.5,0,9.3,4,9.3,10.5c0,0.2,0,0.4,0,0.6H70.6c0.5,1.9,1.8,2.8,4,2.8c1,0,1.9-0.3,2.7-1H83z M78.6,46.7
	c-0.6-1.8-2.1-2.8-4.1-2.8c-2.1,0-3.7,1.1-4,2.8H78.6z M98.5,55.3c-1.5,1.5-3.1,2-5.2,2c-2.1,0-3.9-0.7-5.4-2c-2-1.8-3-4.1-3-6.9
	c0-2.5,1-4.7,2.8-6.5c1.6-1.6,3.6-2.4,5.8-2.4c2.1,0,3.7,0.7,4.9,2.2v-7.6h5.1v23.1h-5V55.3z M94.5,52.7c2.2,0,4.1-1.8,4.1-4.2
	c0-2.5-1.8-4.4-4.2-4.4c-2.4,0-4.3,2-4.3,4.3C90,50.8,91.8,52.7,94.5,52.7z M105.6,57.3V39.8h5.1v17.5H105.6z M29.1,78.9V55.8H34
	v7.8c1.1-1.7,2.7-2.5,4.9-2.5c3.6,0,5.9,2.3,5.9,6.3v11.5h-5.1v-9.5c0-2.4-0.5-3.5-2.5-3.5c-2,0-3.1,1.2-3.1,3.5v9.5H29.1z
	 M62.6,61.5v17.5h-4.8v-2.3c-1.1,1.8-2.8,2.7-5,2.7c-3.6,0-6-2.3-6-6.3V61.5H52v9.5c0,2.4,0.5,3.5,2.5,3.5c2,0,3-1.2,3-3.5v-9.5
	H62.6z M64.8,78.9V61.5h4.6v2.3c1.1-1.8,2.6-2.7,4.7-2.7s3.7,0.9,4.8,2.8c1.8-1.9,3.2-2.8,5.4-2.8c3.9,0,6.1,2.2,6.1,6.3v11.5h-5
	v-9.5c0-2.4-0.5-3.5-2.4-3.5c-1.9,0-3,1.2-3,3.5v9.5h-5v-9.5c0-2.4-0.5-3.5-2.4-3.5c-1.9,0-3,1.2-3,3.5v9.5H64.8z M105.4,77
	c-1.5,1.5-3.1,2-5.2,2c-2.1,0-3.9-0.7-5.4-2c-2-1.8-3-4.1-3-6.9c0-2.5,1-4.7,2.8-6.5c1.6-1.6,3.6-2.4,5.8-2.4c2.1,0,3.7,0.7,4.9,2.2
	v-2h5.1v17.5h-5V77z M101.4,74.4c2.2,0,4.1-1.8,4.1-4.2c0-2.5-1.8-4.4-4.2-4.4c-2.4,0-4.3,2-4.3,4.3C96.9,72.5,98.8,74.4,101.4,74.4
	z M112.5,78.9V61.5h4.9l-0.1,2.3c1.1-1.8,2.7-2.7,5-2.7c3.6,0,5.9,2.3,5.9,6.3v11.5h-5.1v-9.5c0-2.4-0.5-3.5-2.5-3.5
	c-2,0-3.1,1.2-3.1,3.5v9.5H112.5z M116.8,38.5c1.6,0,2.9-1.3,2.9-2.9c0-1.6-1.3-2.9-2.9-2.9s-2.9,1.3-2.9,2.9
	C113.9,37.2,115.2,38.5,116.8,38.5z M119.3,43.6h2.7v-3.8h-7.9l-2.2,3.8h2.2v7.7c0,4,2.4,6.3,6,6.3c0.7,0,1.3-0.1,1.9-0.2v-4.5
	c-0.1,0-0.1,0-0.2,0c-2,0-2.5-1.1-2.5-3.5V43.6z"/>
</svg>
